<?xml version="1.0" encoding="UTF-8"?>
<svg id="Calque_2" data-name="Calque 2" xmlns="http://www.w3.org/2000/svg" viewBox="0 0 244.85 243.8">
  <defs>
    <style>
      .cls-1 {
        fill: #8787b0;
      }

      .cls-1, .cls-2, .cls-3, .cls-4, .cls-5, .cls-6, .cls-7 {
        stroke-width: 0px;
      }

      .cls-2 {
        fill: #8ca47c;
      }

      .cls-3 {
        fill: #b3885b;
      }

      .cls-4 {
        fill: #fac73a;
      }

      .cls-5 {
        fill: #a85757;
      }

      .cls-6 {
        fill: #fff;
      }

      .cls-7 {
        fill: #82368c;
      }
    </style>
  </defs>
  <g id="Calque_1-2" data-name="Calque 1">
    <g>
      <path class="cls-6" d="M196.41,118.08c.14,6.91-.52,13.81-2,20.52-1.52,6.7-3.86,13.21-7,19.32-.37.78-.8,1.52-1.23,2.26l-1.28,2.24c-.46.73-.93,1.44-1.4,2.17l-.7,1.08c-.12.18-.23.36-.35.54l-.38.52-1.53,2.07c-.26.34-.5.7-.77,1.03l-.82.99-1.64,1.97c-.56.64-1.16,1.26-1.73,1.88-4.66,4.98-9.94,9.35-15.74,12.88-5.79,3.55-12.04,6.33-18.58,8.2-.82.22-1.65.41-2.47.62l-1.24.3-.62.15-.63.12-2.51.45c-.42.07-.84.15-1.26.22l-1.27.15-2.54.29c-.42.06-.85.07-1.28.1l-1.28.08c-.85.03-1.71.06-2.56.07-.85,0-1.71.01-2.56-.03-3.41-.11-6.79-.47-10.13-1.08-3.34-.62-6.62-1.48-9.82-2.57-.81-.26-1.59-.57-2.39-.86-.79-.3-1.57-.63-2.36-.95-1.55-.68-3.09-1.38-4.59-2.16-3.01-1.55-5.91-3.32-8.66-5.31-5.49-4-10.43-8.83-14.39-14.44-3.97-5.6-6.95-11.84-8.89-18.38-.95-3.27-1.69-6.61-2.12-10-.42-3.39-.6-6.8-.52-10.23.13-3.42.51-6.84,1.16-10.22.66-3.38,1.66-6.7,2.87-9.92l.96-2.4,1.08-2.34.27-.59c.09-.19.2-.38.3-.57l.6-1.14.6-1.14c.21-.38.43-.74.65-1.11l.66-1.11c.22-.37.43-.74.68-1.1l1.43-2.15c.49-.71,1.02-1.39,1.53-2.08.26-.34.51-.7.78-1.03l.82-1c1.07-1.35,2.26-2.6,3.43-3.87l1.85-1.82.46-.45.48-.43.97-.86c2.61-2.27,5.37-4.39,8.36-6.2,5.93-3.68,12.53-6.34,19.48-7.73,6.95-1.37,14.3-1.44,21.44.24-.45,0-1.3-.09-1.52-.04-.11.03-.07.08.26.2.16.06.4.13.72.22.16.04.34.09.54.15.2.06.43.13.68.21l-.67-.17-.67-.14-1.35-.27c-.9-.17-1.81-.28-2.71-.42-.91-.09-1.81-.19-2.72-.25l-1.36-.06-.68-.03c-.23,0-.45,0-.68,0-3.62-.03-7.2.32-10.69,1-.44.07-.87.17-1.3.27l-1.3.3c-.86.21-1.71.46-2.56.69-.84.27-1.69.53-2.52.81l-1.24.45c-.41.15-.83.3-1.23.47-.81.34-1.63.65-2.43,1.03l-1.2.55c-.4.18-.79.39-1.18.59l-1.17.6-1.14.65-1.14.65c-.19.11-.38.21-.57.33l-.55.35-2.2,1.42-2.12,1.53c-.18.13-.35.25-.53.38l-.51.41-1.02.82-1.01.82-.97.87-.97.87-.48.43-.46.46-1.84,1.83-1.75,1.91-.44.48-.41.5-.82,1c-4.38,5.34-7.84,11.39-10.28,17.84-1.19,3.24-2.12,6.57-2.77,9.96-.64,3.39-.95,6.82-1.03,10.24-.09,3.43.17,6.85.65,10.24l.19,1.27.1.63.13.63.51,2.51c.42,1.66.81,3.32,1.35,4.94,1.03,3.26,2.28,6.46,3.86,9.5.2.38.37.77.58,1.15l.63,1.12c.42.75.83,1.5,1.3,2.22.46.72.91,1.45,1.39,2.17l.74,1.06c.24.35.49.7.76,1.04,2.06,2.75,4.34,5.33,6.82,7.69,2.48,2.36,5.15,4.51,7.96,6.44,2.8,1.94,5.77,3.63,8.84,5.12,3.07,1.48,6.24,2.74,9.5,3.74,3.26,1,6.59,1.78,9.96,2.29,3.38.5,6.8.76,10.24.75,3.44,0,6.87-.36,10.25-.9l2.53-.45c.42-.07.84-.18,1.25-.28l1.25-.3,1.25-.31c.41-.11.84-.19,1.24-.33l2.45-.76,1.23-.38,1.2-.45,2.4-.91c.4-.14.79-.32,1.18-.5l1.17-.52,1.17-.53c.39-.18.79-.34,1.16-.55l2.28-1.18,1.14-.59c.37-.21.74-.43,1.1-.65l2.2-1.32c.37-.21.72-.45,1.08-.69l1.06-.72c5.66-3.84,10.86-8.41,15.28-13.69,4.44-5.26,8.2-11.17,11.02-17.48,2.81-6.31,4.78-12.99,5.92-19.81,1.09-6.83,1.33-13.8.75-20.72.27-.02.81-.06,1.08-.09-.39-4.94-1.2-9.85-2.43-14.67-1.2-4.83-2.89-9.55-5-14.12-1.08-2.28-2.26-4.52-3.56-6.71-1.33-2.18-2.77-4.3-4.34-6.34-1.58-2.04-3.31-3.98-5.16-5.82-1.85-1.84-3.87-3.54-5.96-5.12l-1.59-1.15-1.63-1.08c-.54-.37-1.1-.68-1.65-1.03l-.83-.5c-.28-.16-.56-.31-.85-.47-2.25-1.28-4.57-2.38-6.92-3.37-1.17-.51-2.36-.95-3.55-1.4-1.2-.41-2.39-.84-3.59-1.21-2.41-.75-4.83-1.41-7.27-1.95-2.44-.54-4.87-1.03-7.33-1.39-2.45-.4-4.92-.68-7.41-.92-4.97-.46-10-.54-15.06-.24-8.39.56-16.2,2.34-23.02,5.09-.43.17-.85.34-1.27.51-.42.19-.83.37-1.24.56-.41.19-.82.37-1.22.55-.2.09-.4.19-.61.28-.2.1-.4.2-.59.3-.79.41-1.57.81-2.34,1.21-.75.44-1.49.87-2.22,1.3-2.88,1.78-5.53,3.64-7.85,5.65,3.05-2.25,6.29-4.25,9.7-5.93,3.41-1.7,6.94-3.09,10.54-4.22,3.6-1.14,7.28-1.98,10.99-2.57,3.71-.59,7.45-.94,11.19-1.08,3.74-.14,7.48-.02,11.2.27,3.72.29,7.42.78,11.09,1.44,3.67.67,7.34,1.52,10.97,2.61,3.63,1.1,7.22,2.45,10.71,4.09,3.49,1.64,6.87,3.62,10.03,5.94,1.59,1.15,3.1,2.42,4.57,3.74.36.34.71.68,1.07,1.02.35.35.72.67,1.05,1.04.67.72,1.37,1.41,2,2.16,5.2,5.89,9.07,12.74,11.89,19.9,5.59,14.35,6.98,30.22,4.19,45.38l-.56,2.84-.7,2.81c-.12.47-.23.94-.36,1.4l-.42,1.39c-.29.92-.55,1.85-.87,2.77-.67,1.81-1.29,3.65-2.09,5.41l-.57,1.33-.29.67c-.1.22-.21.44-.32.65l-1.29,2.6c-.11.22-.21.44-.33.65l-.36.63-.72,1.26c-.49.84-.94,1.7-1.49,2.5l-1.59,2.44c-.13.21-.27.4-.42.6l-.43.59-.86,1.17-.86,1.17c-.29.39-.61.75-.92,1.13l-1.86,2.24-1.98,2.13c-.33.35-.66.71-1,1.06l-1.05,1.01c-.7.67-1.39,1.35-2.11,2l-2.21,1.89c-.72.65-1.51,1.22-2.27,1.81l-1.16.88c-.38.3-.77.59-1.17.85l-2.41,1.63-.6.41-.62.37-1.25.75c-1.64,1.03-3.38,1.89-5.1,2.79-.42.24-.88.41-1.32.62l-1.33.6-1.33.6c-.44.2-.9.35-1.36.53l-2.72,1.03-2.78.87c-.46.14-.92.3-1.39.43l-1.42.35c-.95.23-1.88.48-2.84.68-1.92.33-3.82.75-5.76.91-1.93.24-3.88.41-5.83.44l-.73.02h-.73s-1.46-.01-1.46-.01c-.97-.04-1.94-.06-2.91-.14-3.88-.25-7.72-.88-11.48-1.8-7.51-1.88-14.68-5.03-21.09-9.34-6.4-4.32-12.05-9.79-16.4-16.2-4.32-6.41-7.33-13.61-8.98-21.07.72,3.14,1.64,6.27,2.86,9.31,1.23,3.04,2.69,6.02,4.39,8.88.9,1.4,1.78,2.83,2.78,4.18.49.68,1.01,1.34,1.53,2.01.54.64,1.06,1.31,1.62,1.94,2.22,2.54,4.66,4.9,7.28,7.05,10.5,8.61,23.87,13.84,37.62,14.71,3.43.22,6.9.17,10.32-.21l2.56-.3c.43-.04.85-.12,1.27-.2l1.27-.23,1.27-.23c.42-.08.85-.15,1.26-.26l2.49-.62c.41-.11.83-.2,1.24-.32l1.22-.38c.81-.26,1.63-.51,2.44-.77.8-.28,1.59-.6,2.39-.9l1.19-.45c.2-.08.4-.15.59-.23l.58-.26c1.54-.71,3.11-1.35,4.6-2.17.75-.39,1.5-.78,2.25-1.17.72-.43,1.45-.86,2.17-1.29,1.47-.83,2.83-1.81,4.23-2.74.71-.45,1.36-.98,2.03-1.48.67-.51,1.33-1.01,1.99-1.52.64-.54,1.27-1.08,1.9-1.62.63-.54,1.28-1.06,1.87-1.65,1.19-1.15,2.43-2.25,3.53-3.49,4.54-4.78,8.42-10.12,11.46-15.77,2.15-4.05,3.89-8.26,5.29-12.56l.5-1.62c.16-.54.35-1.07.47-1.62.28-1.09.55-2.18.82-3.27.25-1.09.45-2.2.67-3.29.24-1.09.37-2.2.54-3.31.63-4.41.94-8.85.83-13.26v-.83s-.01-.41-.01-.41l-.02-.41-.09-1.65c-.07-1.1-.11-2.2-.25-3.29-.12-1.09-.22-2.18-.37-3.27-.17-1.08-.34-2.16-.52-3.24-.08-.54-.19-1.07-.31-1.61l-.34-1.6c-.12-.53-.22-1.07-.34-1.6l-.42-1.58c-.54-2.11-1.15-4.2-1.88-6.24-.17-.52-.36-1.02-.55-1.53-.19-.51-.38-1.02-.58-1.52-.42-1-.81-2.01-1.27-3-.87-1.99-1.87-3.92-2.92-5.82-.55-.94-1.08-1.89-1.67-2.8-.57-.93-1.19-1.82-1.8-2.72-1.27-1.77-2.59-3.51-4.05-5.13-2.86-3.29-6.2-6.21-9.75-8.71-.45-.31-.9-.6-1.35-.9l-.68-.45c-.23-.15-.46-.28-.69-.42l-1.39-.84-1.41-.78-.71-.39-.72-.36-1.44-.72-1.45-.67-.73-.33-.73-.31-1.47-.61-1.48-.56-.74-.28-.75-.26-1.49-.52c-2-.64-4.01-1.25-6.03-1.74-4.04-1.03-8.1-1.75-12.19-2.3-4.09-.54-8.2-.85-12.33-.9-8.25-.11-16.57.81-24.61,3.06-4.02,1.13-7.95,2.59-11.76,4.43-3.8,1.84-7.42,4.04-10.8,6.57-2.93,2.18-5.72,4.63-8.29,7.32-3.03,3.78-5.27,7.53-6.93,11-1.54,3.45-2.44,6.63-2.84,8.94-.12.57-.15,1.11-.19,1.57-.03.46-.05.86-.04,1.19.02.66.12,1.04.32,1.09.2.05.49-.22.9-.86.2-.32.43-.73.69-1.23.24-.51.58-1.1.94-1.78.37-.68.73-1.48,1.25-2.34.5-.86,1-1.85,1.68-2.87.32-.52.67-1.06,1.02-1.63.39-.55.79-1.13,1.21-1.73.4-.61.89-1.21,1.37-1.84.49-.63.98-1.29,1.56-1.94,1.04-1.37,2.42-3.03,3.99-4.65.39-.4.79-.81,1.19-1.23.4-.41.84-.78,1.25-1.18.42-.39.83-.78,1.25-1.15.43-.36.85-.71,1.27-1.06.42-.34.81-.69,1.22-.99.41-.3.8-.6,1.17-.87.37-.28.73-.54,1.06-.79.34-.23.66-.44.95-.64.58-.39,1.05-.71,1.37-.92.16-.11.29-.19.38-.24.09-.05.13-.08.13-.08,2.61-.94,1.54.38.5,1.67l1.75-1.04.87-.52.9-.47c.6-.31,1.19-.64,1.8-.94l1.84-.85c.61-.3,1.24-.54,1.87-.8.63-.25,1.25-.53,1.89-.75l1.92-.68.48-.17.49-.15.98-.3c1.29-.42,2.62-.74,3.93-1.09.66-.17,1.33-.29,1.99-.44l1-.22c.33-.07.67-.12,1.01-.18l2.01-.35,2.03-.28,1.01-.14,1.02-.1c.68-.06,1.36-.14,2.04-.19,1.37-.08,2.73-.19,4.1-.21.68-.01,1.37-.05,2.05-.04h2.05c2.74.07,5.48.21,8.21.5,1.37.12,2.73.32,4.09.49l2.04.32,1.02.16,1.01.19c2.7.49,5.38,1.09,8,1.82,5.26,1.45,10.34,3.42,15.01,6.05,2.33,1.32,4.56,2.8,6.63,4.45,2.07,1.65,4,3.48,5.77,5.47,3.55,3.96,6.47,8.52,8.79,13.38,2.33,4.86,4.06,10.02,5.24,15.3l.53,2.48c.1.41.15.83.22,1.25l.2,1.25c.31,1.67.44,3.35.64,5.03.26,3.37.41,6.75.22,10.12l-.05,1.26c-.01.21-.01.42-.03.63l-.06.63-.23,2.52-.06.63-.09.62-.18,1.25-.18,1.25-.09.62-.12.62-.48,2.47-.12.62-.15.61-.31,1.22-.31,1.22-.15.61c-.05.2-.12.4-.18.6l-.74,2.4c-.22.81-.55,1.58-.83,2.37l-.43,1.18c-.14.39-.28.79-.45,1.17-.67,1.53-1.28,3.08-2.06,4.55-1.43,3.01-3.2,5.83-5.05,8.57l-1.48,2c-.25.33-.48.67-.75.99l-.8.95-1.59,1.9-1.7,1.81-.85.9-.9.85-1.79,1.71-1.88,1.6-.94.8c-.32.26-.65.5-.98.75l-1.97,1.49c-.67.48-1.36.92-2.04,1.38-1.34.95-2.79,1.73-4.19,2.58-.35.22-.72.4-1.08.58l-1.09.56-1.09.56c-.18.09-.36.19-.55.28l-.56.25-2.24.99-.56.25-.57.21-1.15.43-1.14.43-.57.21c-.19.07-.39.12-.58.18l-2.33.71c-.77.26-1.57.42-2.35.61l-1.18.28c-.4.09-.78.21-1.18.26l-2.39.41c-.4.06-.79.15-1.19.19l-1.2.13-2.4.25c-.8.04-1.6.11-2.4.11-12.83.35-25.69-3.79-35.83-11.24,10.4,7.56,23.51,11.62,36.44,11.11l1.21-.07.6-.03c.2-.01.4-.04.6-.06l2.42-.26c.81-.06,1.6-.24,2.4-.37l1.2-.21c.4-.07.8-.12,1.2-.23l2.37-.57.59-.14.3-.07.29-.09,1.17-.36c.78-.25,1.56-.46,2.33-.73l2.29-.86c.38-.15.77-.28,1.14-.44l1.12-.5,2.24-1,2.18-1.13,1.09-.56,1.06-.63,2.12-1.25c.69-.45,1.36-.91,2.05-1.37l1.02-.68c.34-.23.66-.49.99-.73l1.97-1.48c2.54-2.08,5.02-4.26,7.23-6.69l.84-.9c.14-.15.28-.3.42-.45l.39-.47,1.58-1.89.4-.47.37-.49.73-.99.73-.99c.25-.33.49-.66.71-1.01.89-1.38,1.84-2.72,2.62-4.18l.61-1.07c.2-.36.43-.71.6-1.08l1.11-2.21c.18-.37.38-.73.54-1.11l.49-1.14c.32-.76.66-1.51.98-2.28l.86-2.33c.14-.39.29-.77.43-1.16l.37-1.19.73-2.37.61-2.41.31-1.2c.09-.4.16-.81.24-1.22l.48-2.44c.51-3.28.95-6.58,1.03-9.9.11-1.66.05-3.32.05-4.99,0-.42-.02-.83-.04-1.25l-.07-1.25-.07-1.25-.03-.62-.07-.62c-.18-1.65-.32-3.31-.62-4.95l-.19-1.23c-.07-.41-.12-.82-.22-1.23l-.51-2.44c-1.2-5.29-2.95-10.46-5.31-15.33-2.35-4.86-5.3-9.43-8.9-13.39-1.8-1.98-3.75-3.81-5.85-5.45-2.1-1.64-4.35-3.12-6.71-4.42-4.72-2.61-9.87-4.54-15.18-5.96-5.32-1.41-10.83-2.33-16.34-2.84l-1.03-.1-1.04-.07-2.07-.13c-1.38-.04-2.77-.12-4.15-.1-2.77-.03-5.53.12-8.28.36l-2.06.21c-.68.08-1.36.19-2.05.28l-1.02.14-1.02.18c-.68.12-1.36.24-2.03.37-1.34.31-2.69.57-4.01.95l-1,.26c-.33.08-.66.18-.99.28l-1.96.61c-.66.2-1.29.46-1.94.68-.65.23-1.29.46-1.92.73l-1.9.78-1.85.87c-.31.15-.62.28-.92.44l-.9.48c-.6.33-1.21.63-1.8.97-1.17.71-2.36,1.38-3.47,2.16-.43.68-.46,1.07.59.7.26-.09.6-.24,1.01-.44.41-.2.93-.41,1.52-.71.6-.29,1.28-.65,2.11-1.01.82-.37,1.73-.83,2.81-1.26.75-.3,1.6-.67,2.6-1.02.49-.19,1.01-.38,1.55-.59.55-.18,1.13-.38,1.73-.58.3-.1.61-.21.92-.31.31-.1.64-.19.97-.29.66-.19,1.33-.4,2.04-.6.71-.18,1.44-.37,2.19-.56.75-.19,1.53-.34,2.33-.52,3.19-.66,6.74-1.18,10.54-1.46,3.79-.28,7.83-.31,11.97-.06,4.14.25,8.38.77,12.57,1.56,2.09.39,4.16.87,6.19,1.39,2.03.53,4.01,1.16,5.93,1.83,1.92.69,3.77,1.45,5.54,2.28.44.21.87.43,1.3.64.22.11.43.21.65.32.21.11.42.23.63.34.42.23.83.45,1.24.68.4.24.8.48,1.19.72.2.12.39.24.59.36.19.13.38.25.57.38.38.25.75.5,1.12.74.36.26.72.52,1.07.78.18.13.35.26.53.38.17.13.34.27.5.4.33.27.67.53.99.79.32.27.63.55.94.82.63.53,1.2,1.1,1.77,1.65,1.53,1.54,2.97,3.18,4.3,4.93,1.32,1.76,2.55,3.6,3.68,5.53,1.13,1.92,2.13,3.93,3.06,5.99.22.52.47,1.03.67,1.55l.64,1.58c.39,1.07.8,2.13,1.14,3.21,2.88,8.65,4.1,17.95,3.63,27.18-.46,9.23-2.64,18.41-6.56,26.75l-1.55,3.09-1.71,2.99-1.87,2.88c-.15.24-.33.47-.5.7l-.51.69-1.02,1.39c-2.81,3.63-6.03,6.97-9.55,9.94-7.05,5.93-15.36,10.36-24.14,12.71-4.38,1.18-8.9,1.84-13.37,1.91-4.49.07-8.99-.42-13.36-1.43-8.75-1.99-16.98-6.1-23.67-11.75-6.7-5.65-11.72-12.87-14.58-20.93-1.05-2.91-1.89-5.91-2.41-8.97-.52-3.06-.79-6.15-.78-9.24,0-3.09.27-6.17.85-9.18.57-3.01,1.42-5.96,2.53-8.82l.43-1.07c.15-.36.28-.72.45-1.06l.98-2.09,1.09-2.04c.17-.35.39-.67.58-1l.59-.99c1.62-2.62,3.48-5.11,5.52-7.42,2.04-2.32,4.31-4.42,6.73-6.32,2.42-1.89,5.01-3.56,7.71-4.98,2.71-1.4,5.56-2.54,8.47-3.4,2.92-.84,5.9-1.39,8.88-1.61,2.98-.24,5.96-.09,8.84.37l.54.08c.18.03.36.07.54.11l1.07.22c.36.07.7.18,1.05.27.35.1.7.17,1.04.29l1.03.34.51.17.5.2,1.01.4c.34.13.66.3.99.44,2.63,1.2,5.12,2.75,7.31,4.61l.82.7c.27.24.51.5.78.74.25.25.53.48.76.75l.72.79c.12.13.25.26.36.39l.33.41.67.82c.21.28.41.57.61.86.2.29.42.56.59.87.36.6.76,1.18,1.06,1.8l.49.92.42.95c.57,1.26,1.02,2.59,1.37,3.98.35,1.38.63,2.81.8,4.27.17,1.47.25,2.97.27,4.49.01,2.1-.12,4.24-.37,6.41-.25,2.16-.63,4.38-1.1,6.52-.94,4.28-2.33,8.4-4.32,11.99-.99,1.8-2.12,3.46-3.41,4.95-.32.37-.64.75-.99,1.08l-.51.52c-.17.18-.35.32-.53.48l-.53.47c-.18.16-.34.33-.54.46l-1.15.86c-1.59,1.08-3.32,1.99-5.14,2.7l-1.39.49-1.42.39-.36.1c-.12.03-.24.05-.36.07l-.73.14-.73.15-.73.09-.73.09-.37.05-.37.02-1.47.08-1.47-.03h-.37s-.36-.04-.36-.04l-.73-.07-.73-.06-.72-.12-.72-.12c-.12-.02-.24-.04-.36-.06l-.35-.09-1.4-.35-1.36-.46c-1.78-.67-3.46-1.54-5.04-2.62-1.57-1.1-3-2.43-4.29-3.88-1.3-1.45-2.39-3.1-3.31-4.81-.49-.85-.85-1.76-1.24-2.64l-.49-1.37c-.09-.22-.14-.46-.21-.69l-.19-.7c-.06-.23-.14-.46-.19-.7l-.14-.7c-.09-.47-.21-.93-.25-1.41-.05-.47-.12-.94-.17-1.41l-.06-1.41c-.02-.23,0-.47,0-.7l.03-.7c.01-.23.01-.46.03-.7l.08-.69c.04-.46.13-.92.21-1.37.06-.46.19-.91.29-1.36.45-1.8,1.13-3.55,2-5.16.88-1.61,1.96-3.07,3.18-4.33,1.22-1.26,2.59-2.3,4.05-3.08.18-.09.36-.22.54-.29l.54-.24c.35-.18.74-.29,1.12-.43.76-.26,1.56-.44,2.37-.57,1.62-.25,3.3-.25,4.9.02,1.61.26,3.12.79,4.44,1.51l.48.29c.16.1.33.18.47.3l.44.32c.15.1.3.21.43.33l.4.35.21.17c.06.06.12.13.18.19.12.13.24.26.36.38l.18.19.15.19c.81,1.01,1.44,2.27,1.81,3.65.37,1.38.49,2.88.34,4.3-.14,1.43-.55,2.78-1.15,3.9-.6,1.13-1.39,2.03-2.31,2.68-.21.17-.47.3-.71.46-.27.12-.52.27-.8.37-.27.13-.56.19-.84.3-.29.06-.58.15-.88.18-.29.06-.59.06-.88.1-.29,0-.58.02-.85-.02-.28,0-.54-.07-.81-.09-.25-.07-.51-.1-.74-.2-.25-.06-.45-.18-.67-.26-.19-.12-.41-.2-.58-.34-.21-.12-.31-.24-.46-.34-.07-.06-.13-.14-.2-.21-.03-.04-.07-.06-.1-.1l-.09-.13c-.53-.63-.9-1.6-1.02-2.52-.06-.47-.03-.91,0-1.31.08-.39.18-.72.31-1,.03-.06.07-.11.1-.16.03-.05.04-.13.09-.16.08-.08.13-.21.21-.27.15-.16.35-.32.57-.45.45-.26.96-.36,1.24-.37.15,0,.24.01.32.02,0,0,.02,0,.03,0,.04-.07-.04.09.02-.03,0,0,0,0,.02,0,0,.01.02.02.04.02.06.03.15.09.22.19.06.09.14.2.18.29.03.08.08.16.09.19.01.01.02.02.02.02.01,0-.02,0,.08.02.05.01.1.02.15.04h.02c-.07.04-.14.07-.18.11-.01.01-.04.04-.04.04v.02s-.06.08-.08.13c-.03.07-.07.13-.11.2,0,0-.01.02-.02.03-.02-.02-.03-.04-.05-.06-.1-.12-.19-.23-.28-.33-.18-.19-.33-.33-.45-.41-.5-.33-.59.2-.31,1.51-.06.2-.08.54.33.91.19.2.5.36.88.49.1.02.2.07.3.08.11.02.22.04.33.05.11,0,.23,0,.35.01.12,0,.24-.02.36-.02.99-.12,1.96-.61,2.44-1.94.22-.64.28-1.44.14-2.27-.16-.82-.53-1.68-1.12-2.41-.3-.36-.66-.68-1.06-.96-.42-.26-.89-.49-1.4-.64-.51-.14-1.06-.25-1.63-.26-.57-.01-1.16.04-1.75.16-1.17.26-2.36.79-3.35,1.64-.99.85-1.81,1.99-2.32,3.32-1.03,2.66-.83,5.99.72,8.84.77,1.42,1.91,2.74,3.37,3.65,1.45.93,3.14,1.56,4.92,1.8-.03.27-.09.82-.12,1.09-1.93-.23-3.74-.87-5.28-1.79-.78-.46-1.47-1.01-2.11-1.61-.32-.3-.58-.63-.87-.95-.26-.33-.49-.67-.73-1-.89-1.37-1.45-2.82-1.75-4.23-.3-1.42-.35-2.81-.21-4.11.05-.32.07-.65.15-.96.07-.31.15-.62.22-.92.2-.59.38-1.18.67-1.7.24-.55.58-1.02.89-1.5.16-.23.35-.43.53-.65.18-.21.35-.42.55-.6,1.54-1.49,3.27-2.25,4.82-2.62.78-.18,1.53-.25,2.23-.26.7.02,1.35.07,1.94.2.3.05.57.14.84.22.27.07.51.18.74.27.23.08.45.2.66.31.21.11.41.21.58.32.18.11.34.22.49.31.14.11.28.21.41.3.26.18.46.36.64.5.37.28.58.47.76.54.33.14.39-.15.3-.67-.1-.51-.4-1.21-.72-1.8-.15-.3-.31-.56-.41-.78-.1-.21-.14-.38-.07-.45.07-.08.25-.07.59.08.17.07.38.18.61.34.23.16.52.36.81.63-.26-.3-.56-.57-.85-.85-.3-.27-.63-.52-.96-.77-.34-.24-.71-.46-1.07-.67-.35-.18-.71-.35-1.07-.51-1.45-.6-2.98-.88-4.44-.89-1.46-.02-2.87.22-4.2.65-1.33.43-2.58,1.06-3.72,1.88-2.35,1.65-4.02,4.14-4.88,6.7-.12.32-.2.64-.28.96-.08.32-.17.65-.23.97l-.14.97-.06.49-.03.48-.04.97c0,.32.02.64.04.96.02.64.12,1.26.22,1.89.04.31.13.62.2.93.08.31.15.62.24.92l.31.9.16.45c.06.15.13.29.19.44l.4.87c.14.29.31.57.47.85.31.57.7,1.1,1.08,1.63.19.27.41.52.63.77.22.25.44.5.68.74.25.23.5.46.75.69l.38.34c.13.11.26.2.39.29l.79.57c.27.19.55.34.83.5.55.34,1.13.6,1.71.87.29.14.59.24.88.35.3.1.59.22.89.31l.9.24.45.11.45.08.91.16c.3.04.61.07.91.1.61.07,1.21.07,1.81.08,2.41,0,4.77-.5,7.01-1.37.28-.1.56-.23.83-.35l.82-.38.8-.44c.27-.15.53-.3.79-.47,1.05-.66,2-1.43,2.88-2.27.89-.84,1.66-1.77,2.36-2.74.7-.97,1.3-2,1.8-3.06,2.02-4.25,2.61-8.91,1.96-13.42-.16-1.13-.42-2.26-.75-3.37-.33-1.11-.75-2.2-1.26-3.27-.51-1.06-1.1-2.11-1.8-3.09-.17-.25-.35-.49-.54-.73-.19-.24-.37-.49-.57-.7-.39-.44-.78-.88-1.18-1.31-1.66-1.67-3.54-3.07-5.55-4.19-2.01-1.12-4.15-1.91-6.33-2.47-2.19-.51-4.99-.85-8.05-.64-3.06.2-6.4.96-9.52,2.4-.8.33-1.51.76-2.25,1.16-.37.19-.71.43-1.06.65-.35.23-.69.45-1.03.67-.65.49-1.3.96-1.91,1.46-.3.26-.59.51-.88.77-.14.13-.29.25-.43.38-.14.13-.27.27-.4.4-2.16,2.1-3.75,4.28-4.89,6.09-1.64,2.67-2.9,5.54-3.76,8.52-.44,1.49-.75,3.01-.99,4.55-.1.77-.19,1.55-.26,2.33l-.09,2.33c0,6.21,1.59,12.28,4.49,17.58,1.44,2.65,3.17,5.16,5.2,7.41,2.04,2.24,4.36,4.25,6.91,5.95.65.41,1.29.83,1.96,1.22l2.05,1.08c1.4.64,2.82,1.26,4.29,1.7,2.92.94,5.92,1.53,8.94,1.7,6.02.33,12.06-.69,17.57-3.15l1.03-.46c.34-.15.67-.34,1.01-.52l1-.53c.33-.18.67-.35.98-.56l1.92-1.22,1.83-1.37c.15-.12.31-.23.45-.35l.43-.38.86-.76c.28-.26.58-.5.85-.77l.79-.8c.54-.53,1.02-1.1,1.52-1.66.51-.55.94-1.15,1.41-1.73,1.8-2.35,3.31-4.86,4.56-7.43,1.25-2.57,2.25-5.2,3.07-7.84.82-2.64,1.46-5.3,1.96-7.95.5-2.65.88-5.32,1.1-8.06.21-2.74.26-5.52.08-8.34-.17-2.82-.59-5.67-1.32-8.49l-.28-1.06c-.1-.35-.21-.7-.32-1.05-.11-.35-.22-.7-.34-1.05l-.38-1.04c-.24-.7-.56-1.37-.85-2.05-.15-.34-.3-.68-.46-1.02l-.51-.99c-1.37-2.62-3.01-5.08-4.9-7.3-1.89-2.22-4-4.22-6.26-5.99-2.27-1.77-4.68-3.33-7.24-4.62-5.09-2.59-10.74-4.23-16.34-4.73-2.81-.27-5.62-.3-8.41-.12-2.79.18-5.53.61-8.23,1.21-2.7.61-5.34,1.39-7.91,2.36-2.56.98-5.07,2.13-7.47,3.45l-1.79,1.01c-.3.16-.59.35-.88.53l-.87.55c-.57.37-1.16.72-1.72,1.12l-1.67,1.19c-.28.2-.56.39-.83.6l-.8.64-1.6,1.27c-.52.44-1.02.9-1.53,1.35-.5.46-1.03.89-1.51,1.38-3.92,3.76-7.39,7.98-10.28,12.58-2.86,4.61-5.17,9.57-6.81,14.77-1.61,5.22-2.5,10.64-2.72,16.06l-.03.51v.51s0,1.02,0,1.02c0,.68-.01,1.36,0,2.03l.1,2.03.05,1.01.1,1.01.2,2.02c.07.67.19,1.34.29,2.01l.15,1c.05.33.1.67.17,1l.41,1.99c1.12,5.3,2.98,10.43,5.42,15.28.58,1.23,1.29,2.39,1.95,3.58l.25.44.27.43.55.86c.37.57.73,1.15,1.11,1.71,1.54,2.26,3.24,4.39,5.07,6.41,3.65,4.03,7.81,7.56,12.31,10.53,4.5,2.98,9.35,5.4,14.41,7.23,5.06,1.84,10.33,3.09,15.69,3.72,2.68.31,5.39.46,8.09.44.68.01,1.35-.03,2.03-.05.68-.01,1.35-.06,2.03-.11.34-.02.68-.04,1.01-.07l1.01-.11,2.01-.23c5.36-.71,10.62-2.05,15.64-3.95,5.03-1.9,9.83-4.35,14.33-7.27l1.66-1.13.83-.57c.28-.19.56-.37.82-.58l3.19-2.45,3.05-2.62c.99-.91,1.94-1.85,2.91-2.78,3.79-3.81,7.18-8.02,10.09-12.57,2.91-4.55,5.31-9.39,7.2-14.42,3.78-10.06,5.53-20.83,5.24-31.56ZM117.91,122.94h0s-.01-.01-.01-.01c0,0,0,0,0,0,.03.02.04.03.02.02ZM117.35,122.19s0,.01,0,.01c0,0,0,0,0,0,0-.01,0-.02,0-.01ZM116.37,121.51v.02s-.04.05-.04.05c0,0,0,0,0,.01.02-.03.03-.06.05-.1h0ZM116.27,121.68s0,0,0,0c0,0,0,0,0,0Z"/>
      <path class="cls-4" d="M120.49,15.29s-.08.02-.11.03c.03,0,.05,0,.08.01.06,0,.12-.02.18-.02-.05,0-.1,0-.14-.01Z"/>
      <path class="cls-6" d="M112.84,28.4l.38.04c1,.1,2,.2,3,.3.49.05,1,.09,1.51.12l1.51.1c.42.03.83.05,1.24.07l.3.02h.15s.09,0,.09,0c.12,0,.24,0,.35,0,.47,0,.92,0,1.37.01.89,0,1.75-.01,2.6-.03.62-.01,1.23-.03,1.84-.05.08.02.16.04.24.06.05.01.1.02.15.03l.08.02s.03.01.1.02c.21.02.43.05.66.07.92.09,2,.17,3.17.24.58.03,1.19.06,1.8.08.59,0,1.2,0,1.8,0,.81,0,1.62,0,2.43,0h.61s.3,0,.3,0h.08s.01,0,.02,0v-.02s-.01-.04-.01-.04l-.03-.15s-1.05-5.53-1.14-6.03c-.16-.8-.35-1.61-.52-2.41-.17-.8-.36-1.61-.59-2.41-.24-.91-.51-1.75-.8-2.63-.58-1.74-1.29-3.48-2.16-5.2-.21-.43-.46-.86-.69-1.29-.11-.21-.24-.43-.38-.64l-.27-.45c-.11-.18-.22-.37-.34-.54-.46-.69-.97-1.33-1.45-2-.12-.17-.25-.31-.39-.46l-.4-.44-.79-.88c-1.43-1.36-2.81-2.61-4.25-3.92-.58.65-1.15,1.3-1.72,1.95-.54.63-1.1,1.22-1.62,1.88l-.79.97-.2.24-.18.27-.36.55-.72,1.09c-.24.36-.41.74-.62,1.11l-.61,1.11-.07.14-.04.09-.08.18-.17.36-.33.72c-.11.24-.21.48-.31.72-.21.48-.41.97-.6,1.46-.19.49-.38.98-.56,1.48-.41,1.23-.73,2.47-1.03,3.7-.08.31-.14.62-.21.92l-.1.46-.05.23-.07.36c-.19.98-.39,1.9-.53,2.94-.07.5-.16,1.01-.22,1.51l-.18,1.47-.17,1.47-.08.73-.02.18v.09s-.01.02-.01.02c0,0,.01,0,.02,0h.05ZM126.95,28.08c-1.18-.08-2.36-.16-3.55-.27,1.31.04,2.64.1,4.01.17-.17.03-.32.07-.46.1ZM121.64,27.48c-.22-.02-.43-.05-.64-.07.95-.01,1.89-.02,2.83-.03l.15.05c.49.17,1.28.3,2.21.39l.28.02c-1.56-.08-3.15-.19-4.82-.36ZM127.36,21.78s.08,0,.13.01l.39.04c.09,0,.08.01.1.02l.05.02c.15.04.31.08.48.12.34.08.75.15,1.15.19l.18.04.04.02s.01,0,.02,0l.03-.02s.04-.03.06-.04v.03s0,.11,0,.11c0,.01-.01,0-.03,0h-.04s-.08-.02-.08-.02l.09.04c-.39-.04-.76-.08-1.11-.13-.17-.04-.33-.07-.5-.11-.08-.02-.16-.03-.23-.05l-.11-.02s-.07,0-.13-.01h-.18c-.5-.05-1.01-.08-1.51-.11.43-.03.84-.07,1.22-.12ZM127.23,23.01c.24.02.48.03.71.05.14.01.27.03.41.04.6.07,1.23.13,1.88.2-.07,0-.14,0-.21,0-.07,0-.21,0-.09.06-.62-.05-1.22-.09-1.82-.12h-.17s-.25-.01-.25-.01c-.18,0-.37,0-.55,0-.39-.12-.81-.25-1.35-.35.45.05.94.09,1.43.12ZM119.96,22.54c.73.06,1.47.12,2.18.19.19.02.42.01.52-.02.09-.03,0-.08-.19-.1-.69-.09-1.36-.19-2.02-.28-.06,0-.11.01-.17.02.02-.01.06-.02.09-.03-.06,0-.12-.02-.18-.03.05,0,.09-.01.14-.02.05,0,.1.01.15.02.09-.02.18-.03.29-.04,1.2.09,2.38.18,3.5.32.06,0-.05.07.07.1.06.01.12.03.19.04-.2-.02-.41-.04-.64-.06-.86.07-1.19.1-1.41.11h0s0,0-.07,0c-.1,0-.19.02-.33.03,0,0,0,0,0,0-.03,0-.05,0-.08,0-.13,0-.26-.02-.38-.03-.14-.01-.29,0-.36.02-.05-.02-.1-.04-.17-.06-.6-.04-.72-.05-1.16-.08,0-.04.02-.09.03-.13ZM119.41,22.49c.16.01.31.03.47.04,0,.04-.02.09-.03.13-.07,0-.15-.01-.25-.02,0,0,0,.02.02.04-.02,0-.12,0-.26,0,.01-.07.02-.13.04-.2ZM119.6,23.2s0,0-.19-.05c.06.01.11.03.19.05ZM118.89,22.48c.08,0,.15,0,.23,0-.01.07-.03.14-.04.2,0,0,0,0-.01,0-.09,0-.15,0-.22,0,.01-.07.03-.13.05-.19ZM118.64,23.93v-.17s.03-.15.03-.15c.1,0,.17.01.24.02v.02s-.02.12-.02.12c0,.04-.03.1.03.08l.25.02c.22.02.43.04.65.06,0,.03.05.06.15.08-.04.02-.07.04-.09.07-.13,0-.27-.01-.4-.02l-.77-.03h-.05s-.04,0-.03-.02v-.09ZM113.68,27.69v-.05s.06-.41.06-.41l.11-.83c.08-.55.16-1.11.24-1.66l.13-.84.15-.85c.05-.26.09-.52.14-.78l.07-.39.08-.36c.11-.48.22-.97.33-1.44.03-.09.06-.19.09-.3.19-.6.35-1.21.56-1.81-.06.21-.13.42-.18.63-.11.42-.16.79-.09.84.03,0,.07-.04.12-.13l-.12.59-.15.78-.15.79-.07.39-.06.41c-.07.54-.15,1.07-.22,1.6-.06.52-.11,1.03-.17,1.55-.09.63-.14,1.19-.17,1.65l-.02.12s.07.01.1.02l.22.03.44.06.89.13c.6.08,1.19.18,1.8.26,1.19.14,2.39.29,3.59.43l.43.06c.57.07,1.12.08,1.4.02.09-.02.15-.04.18-.07.99.06,1.97.12,2.96.18-.07.08-.1.16-.04.24.02.03.06.06.1.1-1.53-.07-3.06-.14-4.61-.23l-.53-.03-.65-.04c-.55-.04-1.1-.08-1.65-.12-.56-.04-1.11-.09-1.67-.13-.55-.06-1.09-.12-1.64-.18-.55-.06-1.11-.12-1.66-.19l-.21-.02h-.1s-.03-.01-.03-.01c0,0,0-.02,0-.02Z"/>
      <path class="cls-4" d="M46.7,48.67s.07-.1.11-.14c-.04.03-.08.06-.11.09-.02.03-.04.07-.06.1.02-.02.04-.03.06-.05Z"/>
      <path class="cls-4" d="M37.57,38.65l.12,1.24.03.31.06.32.13.64.26,1.28c.09.43.23.82.34,1.22l.36,1.21.04.15.03.09.07.19.14.37.27.74c.09.25.19.49.29.73.19.49.39.97.61,1.45.21.48.42.96.65,1.44.59,1.16,1.23,2.26,1.89,3.34.16.27.34.53.51.8l.26.4.13.2.2.3c.56.82,1.07,1.62,1.71,2.45.31.41.6.82.91,1.22l.92,1.17.91,1.16.46.57.11.14.06.07v.02s.03,0,.03-.01l.04-.03.3-.24c.78-.64,1.56-1.28,2.34-1.91.38-.31.77-.65,1.15-.98l1.14-1c.31-.28.62-.55.93-.82l.23-.2.11-.1.06-.06c.09-.08.17-.16.25-.24.33-.33.66-.65.98-.96.63-.63,1.23-1.25,1.82-1.86.43-.45.85-.89,1.27-1.34.07-.04.14-.08.22-.13.04-.03.09-.05.13-.08l.07-.04s.03-.02.08-.06c.17-.13.34-.27.52-.42.72-.59,1.54-1.29,2.41-2.07.43-.39.89-.8,1.33-1.22.42-.42.85-.84,1.27-1.28.57-.58,1.15-1.15,1.72-1.72l.43-.43.21-.21.05-.05s.01,0,.01-.01h-.02s-.03-.03-.03-.03l-.13-.09s-4.65-3.17-5.07-3.45c-.68-.45-1.38-.89-2.07-1.33-.69-.44-1.39-.88-2.12-1.29-.81-.47-1.6-.88-2.42-1.29-1.64-.82-3.37-1.55-5.2-2.15-.45-.16-.93-.28-1.4-.42-.23-.07-.47-.13-.72-.19l-.51-.12c-.21-.05-.42-.11-.62-.14-.81-.16-1.63-.26-2.44-.39-.21-.04-.4-.04-.6-.05l-.59-.03-1.18-.06c-1.98.05-3.83.14-5.78.23.05.87.11,1.74.16,2.6.06.83.09,1.64.19,2.48ZM59.11,51.25c-.1.14-.18.27-.25.4-.89.78-1.78,1.55-2.7,2.32.95-.9,1.94-1.8,2.96-2.72ZM58.34,51.82c-1.16,1.05-2.36,2.1-3.66,3.16-.17.14-.34.27-.5.4.67-.68,1.32-1.35,1.98-2.02l.14-.07c.47-.23,1.12-.69,1.83-1.29l.21-.18ZM57.67,46.1s-.15.14-.02.1c-.47.4-.92.8-1.37,1.2l-.12.11-.18.17c-.13.13-.26.26-.38.39-.37.19-.75.4-1.2.71.35-.29.72-.6,1.1-.92.18-.16.36-.31.54-.47.11-.09.21-.17.32-.26.47-.38.97-.78,1.47-1.19-.05.05-.09.1-.14.15ZM54.7,46.9s.06-.05.1-.08l.31-.25c.07-.06.07-.05.08-.06l.05-.03c.13-.08.28-.16.43-.25.3-.19.64-.42.95-.68l.15-.1.04-.02s0-.01,0-.02v-.03s.02-.05.02-.07l.02.02.07.08s0,.01-.02.02l-.04.02-.07.05.09-.04c-.3.25-.6.48-.88.7-.14.09-.29.18-.44.28-.07.04-.13.09-.2.13l-.1.07s-.06.04-.1.08l-.14.12c-.38.33-.76.66-1.14,1.01.28-.33.54-.65.78-.95ZM50.08,52.22s.08-.06.12-.1c.05-.07.11-.15.18-.24.91-.78,1.81-1.55,2.7-2.25.05-.04.02.08.12.02.05-.03.1-.07.16-.1-.16.13-.32.26-.49.41-.56.66-.77.91-.92,1.08h0s0,0-.04.05c-.07.08-.13.15-.21.25,0,0,0,0,0,0-.02.02-.03.04-.05.06-.1.08-.19.17-.29.25-.11.09-.2.2-.24.26-.05.02-.1.05-.16.08-.46.4-.54.47-.88.76-.02-.04-.05-.07-.07-.11.56-.48,1.12-.95,1.68-1.41.15-.12.31-.29.36-.38.04-.08-.05-.06-.2.07-.55.42-1.09.83-1.63,1.23-.03.04-.07.09-.1.13,0-.03.02-.06.04-.09-.05.04-.1.07-.15.11.03-.04.06-.07.09-.11ZM50.11,54.3s.05.09.08.04l.19-.16c.17-.14.34-.28.5-.42.02.02.07,0,.16-.05-.01.04-.02.08-.02.11-.1.09-.2.18-.3.27l-.57.52-.04.03s-.02.03-.03,0l-.06-.07-.11-.13-.1-.12c.07-.06.13-.11.19-.16v.02s.09.1.09.1ZM50.04,53.48c.05-.04.1-.06.17-.1,0,0,0,0-.17.1ZM49.94,52.72s.05.07.07.11c-.06.05-.12.1-.19.16,0,0,.01.01.05.01-.01.01-.08.09-.18.18-.04-.05-.08-.11-.11-.16.12-.1.24-.2.36-.31ZM49.36,53.22c.04.06.08.12.11.17,0,0,0,0,0,0-.07.06-.11.11-.16.15-.04-.06-.07-.11-.11-.17.06-.06.11-.11.16-.16ZM44.04,53.07c.22.38.45.67.53.66.03-.02.02-.08,0-.18l.33.5.45.66.46.66.23.33.25.33c.33.43.65.86.98,1.29.33.41.65.81.98,1.22.38.51.74.95,1.05,1.29l.07.1s.06-.04.09-.06l.18-.13.36-.27.72-.54c.48-.36.97-.71,1.45-1.09.95-.74,1.89-1.49,2.84-2.23l.35-.26c.45-.35.85-.73,1.01-.98.05-.08.08-.13.08-.17.74-.65,1.48-1.31,2.22-1.96,0,.11.04.18.14.2.04,0,.09,0,.14,0-1.13,1.03-2.27,2.06-3.42,3.09l-.4.35-.49.43c-.42.36-.83.72-1.25,1.08-.42.36-.85.73-1.27,1.09-.43.34-.86.69-1.29,1.03-.43.35-.87.69-1.31,1.04l-.16.13-.08.07-.02.02s-.01-.01-.02-.02l-.03-.04-.25-.33-.51-.67c-.33-.45-.67-.89-1.01-1.34l-.5-.68-.49-.7c-.15-.22-.3-.43-.45-.65l-.22-.32-.2-.32c-.26-.42-.53-.84-.79-1.26-.05-.08-.1-.18-.15-.27-.29-.56-.61-1.11-.89-1.67.11.19.21.39.32.57Z"/>
      <path class="cls-4" d="M18.09,124.36s.02.08.03.11c0-.03,0-.05.01-.08,0-.06-.02-.12-.02-.18,0,.05,0,.1-.01.14Z"/>
      <path class="cls-7" d="M29.49,107.22v-.61s0-.3,0-.3v-.08s0-.01,0-.02h-.02s-.04.01-.04.01l-.15.03s-5.53,1.05-6.03,1.14c-.8.16-1.61.35-2.41.52-.8.17-1.61.36-2.41.59-.91.24-1.75.51-2.63.8-1.74.58-3.48,1.29-5.2,2.16-.43.21-.86.46-1.29.69-.21.11-.43.24-.64.38l-.45.27c-.18.11-.37.22-.54.34-.69.46-1.33.97-2,1.45-.17.12-.31.25-.46.39l-.44.4-.88.79c-1.36,1.43-2.61,2.81-3.92,4.25.65.58,1.3,1.15,1.95,1.72.63.54,1.22,1.1,1.88,1.62l.97.79.24.2.27.18.55.36,1.09.72c.36.24.74.41,1.11.62l1.11.61.14.07.09.04.18.08.36.17.72.33c.24.11.48.21.72.31.48.21.97.41,1.46.6.49.19.98.38,1.48.56,1.23.41,2.47.73,3.7,1.03.31.08.62.14.92.21l.46.1.23.05.36.07c.98.19,1.9.39,2.94.53.5.07,1.01.16,1.51.22l1.47.18,1.47.17.73.08.18.02h.09s.02.01.02.01c0,0,0-.01,0-.02v-.05s.04-.38.04-.38c.1-1,.2-2,.3-3,.05-.49.09-1,.12-1.51l.1-1.51c.03-.42.05-.83.07-1.24l.02-.3v-.15s0-.09,0-.09c0-.12,0-.24,0-.35,0-.47,0-.92.01-1.37,0-.89-.01-1.75-.03-2.6-.01-.62-.03-1.23-.05-1.84.02-.08.04-.16.06-.24.01-.05.02-.1.03-.15l.02-.08s.01-.03.02-.1c.02-.21.05-.43.07-.66.09-.92.17-2,.24-3.17.03-.58.06-1.19.08-1.8,0-.59,0-1.2,0-1.8,0-.81,0-1.62,0-2.43ZM28.08,117.91c-.08,1.18-.16,2.36-.27,3.55.04-1.31.1-2.64.17-4.01.03.17.07.32.1.46ZM27.43,120.87c.17-.49.3-1.28.39-2.21l.02-.28c-.08,1.56-.19,3.15-.36,4.82-.02.22-.05.43-.07.64-.01-.95-.02-1.89-.03-2.83l.05-.15ZM23.62,125.94h.02s.12.02.12.02c.04,0,.1.03.08-.03l.02-.25c.02-.22.04-.43.06-.65.03,0,.06-.05.08-.15.02.04.04.07.07.09,0,.13-.01.27-.02.4l-.03.77v.05s0,.04-.02.03h-.09s-.17-.02-.17-.02h-.15c0-.11.01-.19.02-.26ZM23.01,117.63c.02-.24.03-.48.05-.71.01-.14.03-.27.04-.41.07-.6.13-1.23.2-1.88,0,.07,0,.14,0,.21,0,.07,0,.21.06.09-.05.62-.09,1.22-.12,1.82v.17s-.01.25-.01.25c0,.18,0,.37,0,.55-.12.39-.25.81-.35,1.35.05-.45.09-.94.12-1.43ZM23.2,125.25s0,0-.05.19c.01-.06.03-.11.05-.19ZM22.67,120.5c.01-.06.03-.12.04-.19-.02.2-.04.41-.06.64.07.86.1,1.19.11,1.41h0s0,0,0,.07c0,.1.02.19.03.33,0,0,0,0,0,0,0,.03,0,.05,0,.08,0,.13-.02.26-.03.38-.01.14,0,.29.02.36-.02.05-.04.1-.06.17-.04.6-.05.72-.08,1.16-.04,0-.09-.02-.13-.03.06-.73.12-1.47.19-2.18.02-.19.01-.42-.02-.52-.03-.09-.08,0-.1.19-.09.69-.19,1.36-.28,2.02,0,.06.01.11.02.17-.01-.02-.02-.06-.03-.09,0,.06-.02.12-.03.18,0-.05-.01-.09-.02-.14,0-.05.01-.1.02-.15-.02-.09-.03-.18-.04-.29.09-1.2.18-2.38.32-3.5,0-.06.07.05.1-.07ZM22.49,125.44c.01-.16.03-.31.04-.47.04,0,.09.02.13.03,0,.07-.01.15-.02.25,0,0,.02,0,.04-.02,0,.02,0,.12,0,.26-.07-.01-.13-.02-.2-.04ZM22.68,125.78s0,0,0,.01c0,.09,0,.15,0,.22-.07-.01-.13-.03-.19-.05,0-.08,0-.15,0-.23.07.01.14.03.2.04ZM21.8,117.37l.04-.39c0-.09.01-.08.02-.1l.02-.05c.04-.15.08-.31.12-.48.08-.34.15-.75.19-1.15l.04-.18.02-.04s0-.01,0-.02l-.02-.03s-.03-.04-.04-.06h.03s.11,0,.11,0c.01,0,0,.01,0,.03v.04s-.02.08-.02.08l.04-.09c-.04.39-.08.76-.13,1.11-.04.17-.07.33-.11.5-.02.08-.03.16-.05.23l-.02.11s0,.07-.01.13v.18c-.05.5-.08,1.01-.11,1.51-.03-.43-.07-.84-.12-1.22,0-.04,0-.08.01-.13ZM28.45,123.03l-.03.53-.04.65c-.04.55-.08,1.1-.12,1.65-.04.56-.09,1.11-.13,1.67-.06.55-.12,1.09-.18,1.64-.06.55-.12,1.11-.19,1.66l-.02.21v.1s-.01.03-.01.03c0,0-.02,0-.02,0h-.05s-.41-.06-.41-.06l-.83-.11c-.55-.08-1.11-.16-1.66-.24l-.84-.13-.85-.15c-.26-.05-.52-.09-.78-.14l-.39-.07-.36-.08c-.48-.11-.97-.22-1.44-.33-.09-.03-.19-.06-.3-.09-.6-.19-1.21-.35-1.81-.56.21.06.42.13.63.18.42.11.79.16.84.09,0-.03-.04-.07-.13-.12l.59.12.78.15.79.15.39.07.41.06c.54.07,1.07.15,1.6.22.52.06,1.03.11,1.55.17.63.09,1.19.14,1.65.17l.12.02s.01-.07.02-.1l.03-.22.06-.44.13-.89c.08-.6.18-1.19.26-1.8.14-1.19.29-2.39.43-3.59l.06-.43c.07-.57.08-1.12.02-1.4-.02-.09-.04-.15-.07-.18.06-.99.12-1.97.18-2.96.08.07.16.1.24.04.03-.02.06-.06.1-.1-.07,1.53-.14,3.06-.23,4.61Z"/>
      <path class="cls-4" d="M51.47,198.15s-.1-.07-.14-.11c.03.04.06.08.09.11.03.02.07.04.1.06-.02-.02-.03-.04-.05-.06Z"/>
      <path class="cls-1" d="M63.94,196.44l-.24-.3c-.64-.78-1.28-1.56-1.91-2.34-.31-.38-.65-.77-.98-1.15l-1-1.14c-.28-.31-.55-.62-.82-.93l-.2-.23-.1-.11-.06-.06c-.08-.09-.16-.17-.24-.25-.33-.33-.65-.66-.96-.98-.63-.63-1.25-1.23-1.86-1.82-.45-.43-.89-.85-1.34-1.27-.04-.07-.08-.14-.13-.22-.03-.04-.05-.09-.08-.13l-.04-.07s-.02-.03-.06-.08c-.13-.17-.27-.34-.42-.52-.59-.72-1.29-1.54-2.07-2.41-.39-.43-.8-.89-1.22-1.33-.42-.42-.84-.85-1.28-1.27-.58-.57-1.15-1.15-1.72-1.72l-.43-.43-.21-.21-.05-.05s0-.01-.01-.01v.02s-.03.03-.03.03l-.09.13s-3.17,4.65-3.45,5.07c-.45.68-.89,1.38-1.33,2.07-.44.69-.88,1.39-1.29,2.12-.47.81-.88,1.6-1.29,2.42-.82,1.64-1.55,3.37-2.15,5.2-.16.45-.28.93-.42,1.4-.07.23-.13.47-.19.72l-.12.51c-.05.21-.11.42-.14.62-.16.81-.26,1.63-.39,2.44-.04.21-.04.4-.05.6l-.03.59-.06,1.18c.05,1.98.14,3.83.23,5.78.87-.05,1.74-.11,2.6-.16.83-.06,1.64-.09,2.48-.19l1.24-.12.31-.03.32-.06.64-.13,1.28-.26c.43-.09.82-.23,1.22-.34l1.21-.36.15-.04.09-.03.19-.07.37-.14.74-.27c.25-.09.49-.19.73-.29.49-.19.97-.39,1.45-.61.48-.21.96-.42,1.44-.65,1.16-.59,2.26-1.23,3.34-1.89.27-.16.53-.34.8-.51l.4-.26.2-.13.3-.2c.82-.56,1.62-1.07,2.45-1.71.41-.31.82-.6,1.22-.91l1.17-.92,1.16-.91.57-.46.14-.11.07-.06h.02s0-.03-.01-.03l-.03-.04ZM49,190.85s-.05-.06-.08-.1l-.25-.31c-.06-.07-.05-.07-.06-.08l-.03-.05c-.08-.13-.16-.28-.25-.43-.19-.3-.42-.64-.68-.95l-.1-.15-.02-.04s-.01,0-.02,0h-.03s-.05-.02-.07-.02l.02-.02.08-.07s.01,0,.02.02l.02.04.05.07-.04-.09c.25.3.48.6.7.88.09.14.18.29.28.44.04.07.09.13.13.2l.07.1s.04.06.08.1l.12.14c.33.38.66.76,1.01,1.14-.33-.28-.65-.54-.95-.78ZM49.97,190.08c-.16-.18-.31-.36-.47-.54-.09-.11-.17-.21-.26-.32-.38-.47-.78-.97-1.19-1.47.05.05.1.09.15.14.05.04.14.15.1.02.4.47.8.92,1.2,1.37l.11.12.17.18c.13.13.26.26.39.38.19.37.4.75.71,1.2-.29-.35-.6-.72-.92-1.1ZM53.75,186.69c.78.89,1.55,1.78,2.32,2.7-.9-.95-1.8-1.94-2.72-2.96.14.1.27.18.4.25ZM56.44,195.36l-.16-.19c-.14-.17-.28-.34-.42-.5.02-.02,0-.07-.05-.16.04.01.08.02.11.02.09.1.18.2.27.3l.52.57.03.04s.03.02,0,.03l-.07.06-.13.11-.12.1c-.06-.07-.11-.13-.16-.19h.02s.1-.09.1-.09c.03-.02.09-.05.04-.08ZM55.46,189.39l-.07-.14c-.23-.47-.69-1.12-1.29-1.83l-.18-.21c1.05,1.16,2.1,2.36,3.16,3.66.14.17.27.34.4.5-.68-.67-1.35-1.32-2.02-1.98ZM55.49,196.08s0,0,0,0c.06.07.11.11.15.16-.06.04-.11.07-.17.11-.06-.06-.11-.11-.16-.16.06-.04.12-.08.17-.11ZM55.49,195.33s0,0,.1.17c-.04-.05-.06-.1-.1-.17ZM55.29,195.86c-.05.04-.11.08-.16.11-.1-.12-.2-.24-.31-.36.04-.02.07-.05.11-.07.05.06.1.12.16.19,0,0,.01-.01.01-.05.01.01.09.08.18.18ZM54.32,195.47s-.06-.08-.1-.12c-.07-.05-.15-.11-.24-.18-.78-.91-1.55-1.81-2.25-2.7-.04-.05.08-.02.02-.12-.03-.05-.07-.1-.1-.16.13.16.26.32.41.49.66.56.91.77,1.08.92h0s0,0,.05.05c.08.07.15.13.25.21,0,0,0,0,0,0,.02.02.04.03.06.05.08.1.17.19.25.29.09.11.2.2.26.24.02.05.05.1.08.16.4.46.47.54.76.88-.04.02-.07.05-.11.07-.48-.56-.95-1.12-1.41-1.68-.12-.15-.29-.31-.38-.36-.08-.04-.06.05.07.2.42.55.83,1.09,1.23,1.63.04.03.09.07.13.1-.03,0-.06-.02-.09-.04.04.05.07.1.11.15-.04-.03-.07-.06-.11-.09ZM62.85,196.34l-.04.03-.33.25-.67.51c-.45.33-.89.67-1.34,1.01l-.68.5-.7.49c-.22.15-.43.3-.65.45l-.32.22-.32.2c-.42.26-.84.53-1.26.79-.08.05-.18.1-.27.15-.56.29-1.11.61-1.67.88.19-.11.39-.21.57-.32.38-.22.67-.45.66-.53-.02-.03-.08-.02-.18,0l.5-.33.66-.45.66-.46.33-.23.33-.25c.43-.33.86-.65,1.29-.98.41-.33.81-.65,1.22-.98.51-.38.95-.74,1.29-1.05l.1-.07s-.04-.06-.06-.09l-.13-.18-.27-.36-.54-.72c-.36-.48-.71-.97-1.09-1.45-.74-.95-1.49-1.89-2.23-2.84l-.26-.35c-.35-.45-.73-.85-.98-1.01-.08-.05-.13-.08-.17-.08-.65-.74-1.31-1.48-1.96-2.22.11,0,.18-.04.2-.14,0-.04,0-.09,0-.14,1.03,1.13,2.06,2.27,3.09,3.42l.35.4.43.49c.36.42.72.83,1.08,1.25.36.42.73.85,1.09,1.27.34.43.69.86,1.03,1.29.35.43.69.87,1.04,1.31l.13.16.07.08.02.02s-.01.01-.02.02Z"/>
      <path class="cls-4" d="M127.17,226.76s.08-.02.11-.03c-.03,0-.05,0-.08-.01-.06,0-.12.02-.18.02.05,0,.1,0,.14.01Z"/>
      <path class="cls-6" d="M134.81,215.4l-.38-.04c-1-.1-2-.2-3-.3-.49-.05-1-.09-1.51-.12l-1.51-.1c-.42-.03-.83-.05-1.24-.07l-.3-.02h-.15s-.09,0-.09,0c-.12,0-.24,0-.35,0-.47,0-.92,0-1.37-.01-.89,0-1.75.01-2.6.03-.62.01-1.23.03-1.84.05-.08-.02-.16-.04-.24-.06-.05-.01-.1-.02-.15-.03l-.08-.02s-.03-.01-.1-.02c-.21-.02-.43-.05-.66-.07-.92-.09-2-.17-3.17-.24-.58-.03-1.19-.06-1.8-.08-.59,0-1.2,0-1.8,0-.81,0-1.62,0-2.43,0h-.61s-.3,0-.3,0h-.08s-.01,0-.02,0v.02s.01.04.01.04l.03.15s1.05,5.53,1.14,6.03c.16.8.35,1.61.52,2.41.17.8.36,1.61.59,2.41.24.91.51,1.75.8,2.63.58,1.74,1.29,3.48,2.16,5.2.21.43.46.86.69,1.29.11.21.24.43.38.64l.27.45c.11.18.22.37.34.54.46.69.97,1.33,1.45,2,.12.17.25.31.39.46l.4.44.79.88c1.43,1.36,2.81,2.61,4.25,3.92.58-.65,1.15-1.3,1.72-1.95.54-.63,1.1-1.22,1.62-1.88l.79-.97.2-.24.18-.27.36-.55.72-1.09c.24-.36.41-.74.62-1.11l.61-1.11.07-.14.04-.09.08-.18.17-.36.33-.72c.11-.24.21-.48.31-.72.21-.48.41-.97.6-1.46.19-.49.38-.98.56-1.48.41-1.23.73-2.47,1.03-3.7.08-.31.14-.62.21-.92l.1-.46.05-.23.07-.36c.19-.98.39-1.9.53-2.94.07-.5.16-1.01.22-1.51l.18-1.47.17-1.47.08-.73.02-.18v-.09s.01-.02.01-.02c0,0-.01,0-.02,0h-.05ZM120.71,215.72c1.18.08,2.36.16,3.55.27-1.31-.04-2.64-.1-4.01-.17.17-.03.32-.07.46-.1ZM126.01,216.32c.22.02.43.05.64.07-.95.01-1.89.02-2.83.03l-.15-.05c-.49-.17-1.28-.3-2.21-.39l-.28-.02c1.56.08,3.15.19,4.82.36ZM120.29,222.02s-.08,0-.13-.01l-.39-.04c-.09,0-.08-.01-.1-.02l-.05-.02c-.15-.04-.31-.08-.48-.12-.34-.08-.75-.15-1.15-.19l-.18-.04-.04-.02s-.01,0-.02,0l-.03.02s-.04.03-.06.04v-.03s0-.11,0-.11c0-.01.01,0,.03,0h.04s.08.02.08.02l-.09-.04c.39.04.76.08,1.11.13.17.04.33.07.5.11.08.02.16.03.23.05l.11.02s.07,0,.13.01h.18c.5.05,1.01.08,1.51.11-.43.03-.84.07-1.22.12ZM120.43,220.79c-.24-.02-.48-.03-.71-.05-.14-.01-.27-.03-.41-.04-.6-.07-1.23-.13-1.88-.2.07,0,.14,0,.21,0,.07,0,.21,0,.09-.06.62.05,1.22.09,1.82.12h.17s.25.01.25.01c.18,0,.37,0,.55,0,.39.12.81.25,1.35.35-.45-.05-.94-.09-1.43-.12ZM127.69,221.26c-.73-.06-1.47-.12-2.18-.19-.19-.02-.42-.01-.52.02-.09.03,0,.08.19.1.69.09,1.36.19,2.02.28.06,0,.11-.01.17-.02-.02.01-.06.02-.09.03.06,0,.12.02.18.03-.05,0-.09.01-.14.02-.05,0-.1-.01-.15-.02-.09.02-.18.03-.29.04-1.2-.09-2.38-.18-3.5-.32-.06,0,.05-.07-.07-.1-.06-.01-.12-.03-.19-.04.2.02.41.04.64.06.86-.07,1.19-.1,1.41-.11h0s0,0,.07,0c.1,0,.19-.02.33-.03,0,0,0,0,0,0,.03,0,.05,0,.08,0,.13,0,.26.02.38.03.14.01.29,0,.36-.02.05.02.1.04.17.06.6.04.72.05,1.16.08,0,.04-.02.09-.03.13ZM128.24,221.31c-.16-.01-.31-.03-.47-.04,0-.04.02-.09.03-.13.07,0,.15.01.25.02,0,0,0-.02-.02-.04.02,0,.12,0,.26,0-.01.07-.02.13-.04.2ZM128.05,220.6s0,0,.19.05c-.06-.01-.11-.03-.19-.05ZM128.77,221.32c-.08,0-.15,0-.23,0,.01-.07.03-.14.04-.2,0,0,0,0,.01,0,.09,0,.15,0,.22,0-.01.07-.03.13-.05.19ZM129.02,219.87v.17s-.03.15-.03.15c-.1,0-.17-.01-.24-.02v-.02s.02-.12.02-.12c0-.04.03-.1-.03-.08l-.25-.02c-.22-.02-.43-.04-.65-.06,0-.03-.05-.06-.15-.08.04-.02.07-.04.09-.07.13,0,.27.01.4.02l.77.03h.05s.04,0,.03.02v.09ZM133.97,216.11v.05s-.06.41-.06.41l-.11.83c-.08.55-.16,1.11-.24,1.66l-.13.84-.15.85c-.05.26-.09.52-.14.78l-.07.39-.08.36c-.11.48-.22.97-.33,1.44-.03.09-.06.19-.09.3-.19.6-.35,1.21-.56,1.81.06-.21.13-.42.18-.63.11-.42.16-.79.09-.84-.03,0-.07.04-.12.13l.12-.59.15-.78.15-.79.07-.39.06-.41c.07-.54.15-1.07.22-1.6.06-.52.11-1.03.17-1.55.09-.63.14-1.19.17-1.65l.02-.12s-.07-.01-.1-.02l-.22-.03-.44-.06-.89-.13c-.6-.08-1.19-.18-1.8-.26-1.19-.14-2.39-.29-3.59-.43l-.43-.06c-.57-.07-1.12-.08-1.4-.02-.09.02-.15.04-.18.07-.99-.06-1.97-.12-2.96-.18.07-.08.1-.16.04-.24-.02-.03-.06-.06-.1-.1,1.53.07,3.06.14,4.61.23l.53.03.65.04c.55.04,1.1.08,1.65.12.56.04,1.11.09,1.67.13.55.06,1.09.12,1.64.18.55.06,1.11.12,1.66.19l.21.02h.1s.03.01.03.01c0,0,0,.02,0,.02Z"/>
      <path class="cls-4" d="M200.95,193.38s-.07.1-.11.14c.04-.03.08-.06.11-.09.02-.03.04-.07.06-.1-.02.02-.04.03-.06.05Z"/>
      <path class="cls-2" d="M209.59,203.05l-.12-1.24-.03-.31-.06-.32-.13-.64-.26-1.28c-.09-.43-.23-.82-.34-1.22l-.36-1.21-.04-.15-.03-.09-.07-.19-.14-.37-.27-.74c-.09-.25-.2-.49-.29-.73-.19-.49-.39-.97-.61-1.45-.21-.48-.42-.96-.65-1.44-.59-1.16-1.23-2.26-1.89-3.34-.16-.27-.34-.53-.51-.8l-.26-.4-.13-.2-.2-.3c-.56-.82-1.07-1.62-1.71-2.45-.31-.41-.6-.82-.91-1.22l-.92-1.17-.91-1.16-.46-.57-.11-.14-.06-.07v-.02s-.03,0-.03.01l-.04.03-.3.24c-.78.64-1.56,1.28-2.34,1.91-.38.31-.77.65-1.15.98l-1.14,1c-.31.28-.62.55-.93.82l-.23.2-.11.1-.06.06c-.09.08-.17.16-.25.24-.33.33-.66.65-.98.96-.63.63-1.23,1.25-1.82,1.86-.43.45-.85.89-1.27,1.34-.07.04-.14.08-.22.13-.04.03-.09.05-.13.08l-.07.04s-.03.02-.08.06c-.17.13-.34.27-.52.42-.72.59-1.54,1.29-2.41,2.07-.43.39-.89.8-1.33,1.22-.42.42-.85.84-1.27,1.28-.57.58-1.15,1.15-1.72,1.72l-.43.43-.21.21-.05.05s-.01,0-.01.01h.02s.03.03.03.03l.13.09s4.65,3.17,5.07,3.45c.68.45,1.38.89,2.07,1.33.69.44,1.39.88,2.12,1.29.81.47,1.6.88,2.42,1.29,1.64.82,3.37,1.55,5.2,2.15.45.16.93.28,1.4.42.23.07.47.13.72.19l.51.12c.21.05.42.11.62.14.81.16,1.63.26,2.44.39.21.04.4.04.6.05l.59.03,1.18.06c1.98-.05,3.84-.14,5.78-.23-.05-.87-.11-1.74-.16-2.6-.06-.83-.09-1.64-.19-2.48ZM188.05,190.45c.1-.14.18-.27.25-.4.89-.78,1.78-1.55,2.7-2.32-.95.9-1.94,1.8-2.96,2.72ZM188.82,189.88c1.16-1.05,2.36-2.1,3.66-3.16.17-.14.34-.27.5-.4-.67.68-1.32,1.35-1.98,2.02l-.14.07c-.47.23-1.12.69-1.83,1.29l-.21.18ZM189.49,195.6s.15-.14.02-.1c.47-.4.92-.8,1.37-1.2l.12-.11.18-.17c.13-.13.26-.26.38-.39.37-.19.75-.4,1.2-.71-.35.29-.72.6-1.1.92-.18.16-.36.31-.54.47-.11.09-.21.17-.32.26-.47.38-.97.78-1.47,1.19.05-.05.09-.1.14-.15ZM192.46,194.8s-.06.05-.1.08l-.31.25c-.07.06-.07.05-.08.06l-.05.03c-.13.08-.28.16-.43.25-.3.19-.64.42-.95.68l-.15.1-.04.02s0,.01,0,.02v.03s-.02.05-.02.07l-.02-.02-.07-.08s0-.01.02-.02l.04-.02.07-.05-.09.04c.3-.25.6-.48.88-.7.14-.09.29-.18.44-.28.07-.04.13-.09.2-.13l.1-.07s.06-.04.1-.08l.14-.12c.38-.33.76-.66,1.14-1.01-.28.33-.54.65-.78.95ZM197.08,189.48s-.08.06-.12.1c-.05.07-.11.15-.18.24-.91.78-1.81,1.55-2.7,2.25-.05.04-.02-.08-.12-.02-.05.03-.1.07-.16.1.16-.13.32-.26.49-.41.56-.66.77-.91.92-1.08h0s0,0,.04-.05c.07-.08.13-.15.21-.25,0,0,0,0,0,0,.02-.02.03-.04.05-.06.1-.08.19-.17.29-.25.11-.09.2-.2.24-.26.05-.02.1-.05.16-.08.46-.4.54-.47.88-.76.02.04.05.07.07.11-.56.48-1.12.95-1.68,1.41-.15.12-.31.29-.36.38-.04.08.05.06.2-.07.55-.42,1.09-.83,1.63-1.23.03-.04.07-.09.1-.13,0,.03-.02.06-.04.09.05-.04.1-.07.15-.11-.03.04-.06.07-.09.11ZM197.05,187.4s-.05-.09-.08-.04l-.19.16c-.17.14-.34.28-.5.42-.02-.02-.07,0-.16.05.01-.04.02-.08.02-.11.1-.09.2-.18.3-.27l.57-.52.04-.03s.02-.03.03,0l.06.07.11.13.1.12c-.07.06-.13.11-.19.16v-.02s-.09-.1-.09-.1ZM197.12,188.22c-.05.04-.1.06-.17.1,0,0,0,0,.17-.1ZM197.22,188.98s-.05-.07-.07-.11c.06-.05.12-.1.19-.16,0,0-.01-.01-.05-.01.01-.01.08-.09.18-.18.04.05.08.11.11.16-.12.1-.24.2-.36.31ZM197.8,188.48c-.04-.06-.08-.12-.11-.17,0,0,0,0,0,0,.07-.06.11-.11.16-.15.04.06.07.11.11.17-.06.06-.11.11-.16.16ZM203.12,188.63c-.22-.38-.45-.67-.53-.66-.03.02-.02.08,0,.18l-.33-.5-.45-.66-.46-.66-.23-.33-.25-.33c-.33-.43-.65-.86-.98-1.29-.33-.41-.65-.81-.98-1.22-.38-.51-.74-.95-1.05-1.29l-.07-.1s-.06.04-.09.06l-.18.13-.36.27-.72.54c-.48.36-.97.71-1.45,1.09-.95.74-1.89,1.49-2.84,2.23l-.35.26c-.45.35-.85.73-1.01.98-.05.08-.08.13-.08.17-.74.65-1.48,1.31-2.22,1.96,0-.11-.04-.18-.14-.2-.04,0-.09,0-.14,0,1.13-1.03,2.27-2.06,3.42-3.09l.4-.35.49-.43c.42-.36.83-.72,1.25-1.08.42-.36.85-.73,1.27-1.09.43-.34.86-.69,1.29-1.03.43-.35.87-.69,1.31-1.04l.16-.13.08-.07.02-.02s.01.01.02.02l.03.04.25.33.51.67c.33.45.67.89,1.01,1.34l.5.68.49.7c.15.22.3.43.45.65l.22.32.2.32c.26.42.53.84.79,1.26.05.08.1.18.15.27.29.56.61,1.11.88,1.67-.11-.19-.21-.39-.32-.57Z"/>
      <path class="cls-4" d="M229.56,117.68s-.02-.08-.03-.11c0,.03,0,.05-.01.08,0,.06.02.12.02.18,0-.05,0-.1.01-.14Z"/>
      <path class="cls-5" d="M242.9,119.9c-.63-.54-1.22-1.1-1.88-1.62l-.97-.79-.24-.2-.27-.18-.55-.36-1.09-.72c-.36-.24-.74-.41-1.11-.62l-1.11-.61-.14-.07-.09-.04-.18-.08-.36-.17-.72-.33c-.24-.11-.48-.21-.72-.31-.48-.21-.97-.41-1.46-.6-.49-.19-.98-.38-1.48-.56-1.23-.41-2.47-.73-3.7-1.03-.31-.08-.62-.14-.92-.21l-.46-.1-.23-.05-.36-.07c-.98-.19-1.9-.39-2.94-.53-.5-.07-1.01-.16-1.51-.22l-1.47-.18-1.47-.17-.73-.08-.18-.02h-.09s-.02-.01-.02-.01c0,0,0,.01,0,.02v.05s-.04.38-.04.38c-.1,1-.2,2-.3,3-.05.49-.09,1-.12,1.51l-.1,1.51c-.03.42-.05.83-.07,1.24l-.02.3v.15s0,.09,0,.09c0,.12,0,.24,0,.35,0,.47,0,.92-.01,1.37,0,.89.01,1.75.03,2.6.01.62.03,1.23.05,1.84-.02.08-.04.16-.06.24-.01.05-.02.1-.03.15l-.02.08s-.01.03-.02.1c-.02.21-.05.43-.07.66-.09.92-.17,2-.24,3.17-.03.58-.06,1.19-.08,1.8,0,.59,0,1.2,0,1.8,0,.81,0,1.62,0,2.43v.61s0,.3,0,.3v.08s0,.01,0,.02h.02s.04-.01.04-.01l.15-.03s5.53-1.05,6.03-1.14c.8-.16,1.61-.35,2.41-.52.8-.17,1.61-.36,2.41-.59.91-.24,1.75-.51,2.63-.8,1.74-.58,3.48-1.29,5.2-2.16.43-.21.86-.46,1.29-.69.21-.11.43-.24.64-.38l.45-.27c.18-.11.37-.22.54-.34.69-.46,1.33-.97,2-1.45.17-.12.31-.25.46-.39l.44-.4.88-.79c1.36-1.43,2.61-2.81,3.92-4.25-.65-.58-1.3-1.15-1.95-1.72ZM216.77,124.14c.08-1.18.16-2.36.27-3.55-.04,1.31-.1,2.64-.17,4.01-.03-.17-.07-.32-.1-.46ZM217.42,121.18c-.17.49-.3,1.28-.39,2.21l-.02.28c.08-1.56.19-3.15.36-4.82.02-.22.05-.43.07-.64.01.95.02,1.89.03,2.83l-.05.15ZM221.23,116.11h-.02s-.12-.02-.12-.02c-.04,0-.1-.03-.08.03l-.02.25c-.02.22-.04.43-.06.65-.03,0-.06.05-.08.15-.02-.04-.04-.07-.07-.09,0-.13.01-.27.02-.4l.03-.77v-.05s0-.04.02-.03h.09s.17.02.17.02h.15c0,.11-.01.19-.02.26ZM221.84,124.42c-.02.24-.03.48-.05.71-.01.14-.03.27-.04.41-.07.6-.13,1.23-.2,1.88,0-.07,0-.14,0-.21,0-.07,0-.21-.06-.09.05-.62.09-1.22.12-1.82v-.17s.01-.25.01-.25c0-.18,0-.37,0-.55.12-.39.25-.81.35-1.35-.05.45-.09.94-.12,1.43ZM221.65,116.8s0,0,.05-.19c-.01.06-.03.11-.05.19ZM222.18,121.55c-.01.06-.03.12-.04.19.02-.2.04-.41.06-.64-.07-.86-.1-1.19-.11-1.41h0s0,0,0-.07c0-.1-.02-.19-.03-.33,0,0,0,0,0,0,0-.03,0-.05,0-.08,0-.13.02-.26.03-.38.01-.14,0-.29-.02-.36.02-.05.04-.1.06-.17.04-.6.05-.72.08-1.16.04,0,.09.02.13.03-.06.73-.12,1.47-.19,2.18-.02.19-.01.42.02.52.03.09.08,0,.1-.19.09-.69.19-1.36.28-2.02,0-.06-.01-.11-.02-.17.01.02.02.06.03.09,0-.06.02-.12.03-.18,0,.05.01.09.02.14,0,.05-.01.1-.02.15.02.09.03.18.04.29-.09,1.2-.18,2.38-.32,3.5,0,.06-.07-.05-.1.07ZM222.36,116.61c-.01.16-.03.31-.04.47-.04,0-.09-.02-.13-.03,0-.07.01-.15.02-.25,0,0-.02,0-.04.02,0-.02,0-.12,0-.26.07.01.13.02.2.04ZM222.17,116.27s0,0,0-.01c0-.09,0-.15,0-.22.07.01.13.03.19.05,0,.08,0,.15,0,.23-.07-.01-.14-.03-.2-.04ZM223.05,124.68l-.04.39c0,.09-.01.08-.02.1l-.02.05c-.04.15-.08.31-.12.48-.08.34-.15.75-.19,1.15l-.04.18-.02.04s0,.01,0,.02l.02.03s.03.04.04.06h-.03s-.11,0-.11,0c-.01,0,0-.01,0-.03v-.04s.02-.08.02-.08l-.04.09c.04-.39.08-.76.13-1.11.04-.17.07-.33.11-.5.02-.08.03-.16.05-.23l.02-.11s0-.07.01-.13v-.18c.05-.5.08-1.01.11-1.51.03.43.07.84.12,1.22,0,.04,0,.08-.01.13ZM226.24,112.66c-.42-.11-.79-.16-.84-.09,0,.03.04.07.13.12l-.59-.12-.78-.15-.79-.15-.39-.07-.41-.06c-.54-.07-1.07-.15-1.6-.22-.52-.06-1.03-.11-1.55-.17-.63-.09-1.19-.14-1.65-.17l-.12-.02s-.01.07-.02.1l-.03.22-.06.44-.13.89c-.08.6-.18,1.19-.26,1.8-.14,1.19-.29,2.39-.43,3.59l-.06.43c-.07.57-.08,1.12-.02,1.4.02.09.04.15.07.18-.06.99-.12,1.97-.18,2.96-.08-.07-.16-.1-.24-.04-.03.02-.06.06-.1.1.07-1.53.14-3.06.23-4.61l.03-.53.04-.65c.04-.55.08-1.1.12-1.65.04-.56.09-1.11.13-1.67.06-.55.12-1.09.18-1.64.06-.55.12-1.11.19-1.66l.02-.21v-.1s.01-.03.01-.03c0,0,.02,0,.02,0h.05s.41.06.41.06l.83.11c.55.08,1.11.16,1.66.24l.84.13.85.15c.26.05.52.09.78.14l.39.07.36.08c.48.11.97.22,1.44.33.09.03.19.06.3.09.6.19,1.21.35,1.81.56-.21-.06-.42-.13-.63-.18Z"/>
      <path class="cls-4" d="M196.23,43.9s-.07-.04-.1-.06c.02.02.03.04.05.06.05.04.1.07.14.11-.03-.04-.06-.08-.09-.11Z"/>
      <path class="cls-3" d="M206.02,35.07c-.83.06-1.64.09-2.48.19l-1.24.12-.31.03-.32.06-.64.13-1.28.26c-.43.09-.82.23-1.22.34l-1.21.36-.15.04-.09.03-.19.07-.37.14-.74.27c-.25.09-.49.19-.73.29-.49.19-.97.39-1.45.61-.48.21-.96.42-1.44.65-1.16.59-2.26,1.23-3.34,1.89-.27.16-.53.34-.8.51l-.4.26-.2.13-.3.2c-.82.56-1.62,1.07-2.45,1.71-.41.31-.82.6-1.22.91l-1.17.92-1.16.91-.57.46-.14.11-.07.06h-.02s0,.03.01.03l.03.04.24.3c.64.78,1.28,1.56,1.91,2.34.31.38.65.77.98,1.15l1,1.14c.28.31.55.62.82.93l.2.23.1.11.06.06c.08.09.16.17.24.25.33.33.65.66.96.98.63.63,1.25,1.23,1.86,1.82.45.43.89.85,1.34,1.27.04.07.08.14.13.22.03.04.05.09.08.13l.04.07s.02.03.06.08c.13.17.27.34.42.52.59.72,1.29,1.54,2.07,2.41.39.43.8.89,1.22,1.33.42.42.84.85,1.28,1.27.58.57,1.15,1.15,1.72,1.72l.43.43.21.21.05.05s0,.01.01.01v-.02s.03-.03.03-.03l.09-.13s3.17-4.65,3.45-5.07c.45-.68.89-1.38,1.33-2.07.44-.69.88-1.39,1.29-2.12.47-.81.88-1.6,1.29-2.42.82-1.64,1.55-3.37,2.15-5.2.16-.45.28-.93.42-1.4.07-.23.13-.47.19-.72l.12-.51c.05-.21.11-.42.14-.62.16-.81.26-1.63.39-2.44.04-.21.04-.4.05-.6l.03-.59.06-1.18c-.05-1.98-.14-3.83-.23-5.78-.87.05-1.74.11-2.6.16ZM189.76,56.47s0,.09,0,.14c-1.03-1.13-2.06-2.27-3.09-3.42l-.35-.4-.43-.49c-.36-.42-.72-.83-1.08-1.25-.36-.42-.73-.85-1.09-1.27-.34-.43-.69-.86-1.03-1.29-.35-.43-.69-.87-1.04-1.31l-.13-.16-.07-.08-.02-.02s.01-.01.02-.02l.04-.03.33-.25.67-.51c.45-.33.89-.67,1.34-1.01l.68-.5.7-.49c.22-.15.43-.3.65-.45l.32-.22.32-.2c.42-.26.84-.53,1.26-.79.08-.05.18-.1.27-.15.56-.29,1.11-.61,1.67-.88-.19.11-.39.21-.57.32-.38.22-.67.45-.66.53.02.03.08.02.18,0l-.5.33-.66.45-.66.46-.33.23-.33.25c-.43.33-.86.65-1.29.98-.41.33-.81.65-1.22.98-.51.38-.95.74-1.29,1.05l-.1.07s.04.06.06.09l.13.18.27.36.54.72c.36.48.71.97,1.09,1.45.74.95,1.49,1.89,2.23,2.84l.26.35c.35.45.73.85.98,1.01.08.05.13.08.17.08.65.74,1.31,1.48,1.96,2.22-.11,0-.18.04-.2.14ZM187.85,47.88l.16.19c.14.17.28.34.42.5-.02.02,0,.07.05.16-.04-.01-.08-.02-.11-.02-.09-.1-.18-.2-.27-.3l-.52-.57-.03-.04s-.03-.02,0-.03l.07-.06.13-.11.12-.1c.06.07.11.13.16.19h-.02s-.1.09-.1.09c-.03.02-.09.05-.04.08ZM188.83,53.85l.08.14c.23.47.69,1.12,1.29,1.83l.18.21c-1.05-1.16-2.1-2.36-3.16-3.66-.14-.17-.27-.34-.4-.5.68.67,1.35,1.32,2.02,1.98ZM188.8,47.16s0,0,0,0c-.06-.07-.11-.11-.15-.16.06-.04.11-.07.17-.11.06.06.11.11.16.16-.06.04-.12.08-.17.11ZM188.8,47.91s0,0-.1-.17c.04.05.06.1.1.17ZM189.2,47.52s-.01.01-.01.05c-.01-.01-.09-.08-.18-.18.05-.04.11-.08.16-.11.1.12.2.24.31.36-.04.02-.07.05-.11.07-.05-.06-.1-.12-.16-.19ZM190.54,56.55c-.78-.89-1.55-1.78-2.32-2.7.9.95,1.8,1.94,2.72,2.96-.14-.1-.27-.18-.4-.25ZM192.22,50.55c-.66-.56-.91-.77-1.08-.92h0s0,0-.05-.05c-.08-.07-.15-.13-.25-.21,0,0,0,0,0,0-.02-.02-.04-.03-.06-.05-.08-.1-.17-.19-.25-.29-.09-.11-.2-.2-.26-.24-.02-.05-.05-.1-.08-.16-.4-.46-.47-.54-.76-.88.04-.02.07-.05.11-.07.48.56.95,1.12,1.41,1.68.12.15.29.31.38.36.08.04.06-.05-.07-.2-.42-.55-.83-1.09-1.23-1.63-.04-.03-.09-.07-.13-.1.03,0,.06.02.09.04-.04-.05-.07-.1-.11-.15.04.03.07.06.11.09.03.04.06.08.1.12.07.05.15.11.24.18.78.91,1.55,1.81,2.25,2.7.04.05-.08.02-.02.12.03.05.07.1.1.16-.13-.16-.26-.32-.41-.49ZM196.09,55.36s-.14-.15-.1-.02c-.4-.47-.8-.92-1.2-1.37l-.11-.12-.17-.18c-.13-.13-.26-.26-.39-.38-.19-.37-.4-.75-.71-1.2.29.35.6.72.92,1.1.16.18.31.36.47.54.09.11.17.21.26.32.38.47.78.97,1.19,1.47-.05-.05-.1-.09-.15-.14ZM196.86,54.55l-.08.07s-.01,0-.02-.02l-.02-.04-.05-.07.04.09c-.25-.3-.48-.6-.7-.88-.09-.14-.18-.29-.28-.44-.04-.07-.09-.13-.13-.2l-.07-.1s-.04-.06-.08-.1l-.12-.14c-.33-.38-.66-.76-1.01-1.14.33.28.65.54.95.78.03.03.05.06.08.1l.25.31c.06.07.05.07.06.08l.03.05c.08.13.16.28.25.43.19.3.42.64.68.95l.1.15.02.04s.01,0,.02,0h.03s.05.02.07.02l-.02.02Z"/>
    </g>
  </g>
</svg>